<svg xmlns="http://www.w3.org/2000/svg" viewBox="0 0 48 48" id="rocket">
  <path d="M42.08 6.661c0-.011-.012-.018-.016-.028a.486.486 0 0 0-.05-.085.463.463 0 0 0-.057-.075.489.489 0 0 0-.072-.055.549.549 0 0 0-.087-.051c-.01 0-.017-.012-.027-.016-.272-.093-6.723-2.212-13.666 4.731a24.222 24.222 0 0 0-3.114 3.81 6.058 6.058 0 0 0-3.659-.386 7.152 7.152 0 0 0-3.688 3.352 1.095 1.095 0 0 0 1.245 1.615l.627-.184a4.28 4.28 0 0 1 2.652.087l.561.206a2.739 2.739 0 0 0 .062 1.152l-1.142 1.559a.484.484 0 0 0-.072.376 4.882 4.882 0 0 1-.982.17c-1.156.122-2.9.307-2.66 3.033.119 1.316.212 2.355-2 2.734-.9.154-1.116 1.025-1.289 1.726-.143.58-.279 1.127-.692 1.34a5.165 5.165 0 0 1-.785.308c-1 .328-1.72.7-1.869 2.568a.541.541 0 0 1-.113.339c-.155.131-.632.089-1.053.054-1.045-.09-2.8-.24-3.192 2.124-.273 1.639-.42 2.223-.994 2.337a.5.5 0 0 0 .1.991.482.482 0 0 0 .1-.01c1.3-.26 1.514-1.537 1.783-3.153.231-1.385.921-1.395 2.121-1.293a2.364 2.364 0 0 0 1.784-.287 1.428 1.428 0 0 0 .464-1.022c.107-1.345.445-1.456 1.184-1.7a6.094 6.094 0 0 0 .93-.368 2.722 2.722 0 0 0 1.206-1.99c.157-.637.257-.941.487-.981 3.125-.534 2.946-2.505 2.821-3.9-.148-1.657.577-1.734 1.777-1.861a5.069 5.069 0 0 0 1.322-.264 10.623 10.623 0 0 0 .65.974 10.617 10.617 0 0 0-.421 1 .5.5 0 0 0 .471.669.518.518 0 0 0 .169-.029 10.617 10.617 0 0 0 1-.421 9.9 9.9 0 0 0 .648.449 6.116 6.116 0 0 0-.8 2.812c-.044.661-.289.765-1.638.7a3.511 3.511 0 0 0-2.424.461 2.407 2.407 0 0 0-.879 1.659c-.106.6-.17.957-1.208 1.3-.578.192-.594.9-.612 1.729-.017.707-.038 1.676-.426 1.971a.965.965 0 0 1-.8.047c-2.413-.61-2.917-.163-3.56 1.087-.093.182-.2.383-.326.6a2.151 2.151 0 0 1-.213.3 1.18 1.18 0 0 1-.133-.031c-.569-.153-1.211-.2-2.28 1.007a14.093 14.093 0 0 1-1.57 1.559.5.5 0 1 0 .6.8 14.377 14.377 0 0 0 1.716-1.694c.748-.843 1.015-.774 1.273-.7.552.15.989.078 1.466-.727.14-.237.253-.456.355-.653.448-.872.54-1.053 2.424-.576a1.874 1.874 0 0 0 1.655-.22c.772-.587.8-1.783.82-2.745a5.9 5.9 0 0 1 .055-.846 2.264 2.264 0 0 0 1.751-2.033 1.445 1.445 0 0 1 .52-1.054 2.824 2.824 0 0 1 1.75-.242c1.021.046 2.567.121 2.684-1.635a5.093 5.093 0 0 1 .661-2.373c.129.068.212.109.224.115a.5.5 0 0 0 .515-.046L27.7 25.64a2.852 2.852 0 0 0 .706.1 2.627 2.627 0 0 0 .444-.039l.2.561a4.215 4.215 0 0 1 .088 2.652l-.184.629a1.094 1.094 0 0 0 1.048 1.4 1.1 1.1 0 0 0 .568-.158 7.158 7.158 0 0 0 3.355-3.685 6.045 6.045 0 0 0-.387-3.66 24.169 24.169 0 0 0 3.811-3.113c6.942-6.943 4.825-13.395 4.731-13.666ZM19.235 18.329l-.627.184a.092.092 0 0 1-.1-.033.1.1 0 0 1-.006-.106c.547-.911 1.678-2.5 3.105-2.906a4.888 4.888 0 0 1 2.837.288 19.1 19.1 0 0 0-1.41 2.873l-.521-.191a5.284 5.284 0 0 0-3.278-.109Zm3.4 4.3.641-.875c.024.03.041.065.066.1l.181.218c.125.15.263.308.4.464a10.682 10.682 0 0 0-.717 1.033c-.242-.362-.444-.71-.567-.936Zm1.044 2.115a10.528 10.528 0 0 1 4.352-4.344 10.528 10.528 0 0 1-4.348 4.348Zm2.121 1.048a12.374 12.374 0 0 1-.935-.567 10.807 10.807 0 0 0 1.033-.717c.155.131.311.268.459.391l.223.185c.03.026.064.043.095.067Zm7.165 1.032c-.407 1.427-2 2.558-2.905 3.1a.086.086 0 0 1-.109 0 .084.084 0 0 1-.031-.1l.184-.63a5.216 5.216 0 0 0-.108-3.276L29.8 25.4a19.066 19.066 0 0 0 2.872-1.41 4.882 4.882 0 0 1 .291 2.834Zm3.679-7.205a20.8 20.8 0 0 1-7.655 5.017 1.772 1.772 0 0 1-1.234-.014 1.651 1.651 0 0 1-.533-.3l-.226-.188c-.107-.089-.22-.189-.332-.283a11.485 11.485 0 0 0 2.856-4.3.5.5 0 0 0-.631-.631 11.485 11.485 0 0 0-4.3 2.856c-.095-.113-.2-.228-.287-.337l-.185-.222a1.665 1.665 0 0 1-.307-.546 1.762 1.762 0 0 1-.007-1.231 20.806 20.806 0 0 1 5.015-7.644c5.85-5.85 11.218-4.868 12.39-4.561.303 1.165 1.283 6.534-4.566 12.384Zm-6.97 13.441v-.451a.5.5 0 0 1 1 0v.451a.5.5 0 0 1-1 0Zm2.245.333.226-.39a.5.5 0 0 1 .865.5l-.225.39a.5.5 0 0 1-.433.25.5.5 0 0 1-.433-.751Zm1.6 2.1a.5.5 0 0 1 .182-.683l.39-.226a.5.5 0 0 1 .5.865l-.39.226a.5.5 0 0 1-.683-.182Zm1.966 1.928a.5.5 0 0 1-.5.5h-.45a.5.5 0 0 1 0-1h.45a.5.5 0 0 1 .496.496Zm-.71 2.653a.5.5 0 0 1-.434.25.494.494 0 0 1-.25-.067l-.39-.225a.5.5 0 0 1 .5-.866l.39.225a.5.5 0 0 1 .18.679Zm-1.76 1.26a.5.5 0 0 1-.183.683.488.488 0 0 1-.249.067.5.5 0 0 1-.434-.25l-.225-.39a.5.5 0 1 1 .866-.5Zm-2.337.444v.451a.5.5 0 0 1-1 0v-.451a.5.5 0 0 1 1 0Zm-2.245-.333-.225.39a.5.5 0 0 1-.434.25.488.488 0 0 1-.249-.067.5.5 0 0 1-.184-.683l.226-.39a.5.5 0 0 1 .866.5Zm-1.595-2.094a.5.5 0 0 1-.183.683l-.39.225a.5.5 0 0 1-.25.067.5.5 0 0 1-.25-.933l.39-.225a.5.5 0 0 1 .679.179Zm-1.018-1.429h-.45a.5.5 0 0 1 0-1h.45a.5.5 0 0 1 0 1Zm-.057-2.471a.5.5 0 0 1 .5-.866l.39.225a.5.5 0 0 1-.25.933.494.494 0 0 1-.25-.067Zm1.573-1.951a.5.5 0 1 1 .864-.5l.226.391a.5.5 0 0 1-.182.683.5.5 0 0 1-.683-.182ZM19.193 6.038v-.263a.5.5 0 0 1 1 0v.263a.5.5 0 0 1-1 0Zm1.944 1.1a.5.5 0 0 1 0-.707l.186-.186a.5.5 0 0 1 .707.707l-.186.186a.5.5 0 0 1-.707 0Zm1.1.944h.263a.5.5 0 0 1 0 1h-.263a.5.5 0 0 1 0-1Zm-1.1 2.649a.5.5 0 0 1 .708-.706l.185.186a.5.5 0 0 1-.708.707Zm-1.944.655v-.263a.5.5 0 1 1 1 0v.263a.5.5 0 0 1-1 0Zm-.943-1.362a.5.5 0 0 1 0 .707l-.186.187a.5.5 0 1 1-.708-.707l.186-.186a.5.5 0 0 1 .708-.003ZM16.389 8.58a.5.5 0 0 1 .5-.5h.263a.5.5 0 0 1 0 1h-.263a.5.5 0 0 1-.5-.5Zm.968-1.63a.5.5 0 0 1 .707-.707l.186.186a.5.5 0 0 1-.707.707Zm-5.042 17.707-.028-.318a.5.5 0 1 1 1-.089l.028.318a.5.5 0 0 1-.454.542.331.331 0 0 1-.044 0 .5.5 0 0 1-.502-.453Zm2.253.909a.5.5 0 0 1-.124-.7l.182-.262a.5.5 0 0 1 .821.572l-.183.262a.5.5 0 0 1-.7.124Zm1.017 1.448a.5.5 0 0 1 .353-.613l.308-.083a.5.5 0 0 1 .26.966l-.308.083a.535.535 0 0 1-.131.017.5.5 0 0 1-.482-.37Zm-3.857 3.838.082-.309a.5.5 0 0 1 .967.257l-.082.308a.5.5 0 0 1-.483.372.477.477 0 0 1-.129-.017.5.5 0 0 1-.355-.611Zm-.758-1.676a.5.5 0 0 1-.121.7l-.262.184a.5.5 0 0 1-.575-.819l.261-.183a.5.5 0 0 1 .697.118Zm-1.776-1.82a.506.506 0 0 1 .54-.456l.318.027a.5.5 0 0 1-.041 1h-.043L9.65 27.9a.5.5 0 0 1-.456-.544Zm1.126-1.718a.5.5 0 1 1 .706-.708l.226.225a.5.5 0 1 1-.706.708Zm23.553-15.457a.482.482 0 0 0-.115.059 3.019 3.019 0 0 0-.678.494 3.265 3.265 0 1 0 4.617 0 3.347 3.347 0 0 0-3.824-.553Zm3.117 4.463a2.255 2.255 0 0 1-3.853-1.722l1.353 1.353a.5.5 0 1 0 .707-.707l-1.724-1.724a2.267 2.267 0 0 1 .314-.4 2.143 2.143 0 0 1 .175-.143l1.228 1.227a.5.5 0 0 0 .707-.707l-.987-.987a2.3 2.3 0 0 1 .478-.053 2.265 2.265 0 0 1 1.6 3.866Z"></path>
</svg>
